# xmcd
#
# Track frame offsets:
#	150
#	16197
#	31471
#	45215
#	60636
#	79983
#	99360
#	119230
#	131758
#	147441
#	171387
#	183591
#
# Disc length: 2809
#
# Revision: 8
# Processed by: cddbd v1.5.1PL0 Copyright (c) Steve Scherf et al.
# Submitted via: FreeRIP 1.21
# Normalized: r7:TRMNUM
#
DISCID=a80af70c
DTITLE=Bersuit Vergarabat - Libertinaje
DYEAR=1998
DGENRE=blues
TTITLE0=Yo tomo
TTITLE1=A los tambores
TTITLE2=De onda
TTITLE3=Se viene
TTITLE4=Murguita del sur
TTITLE5=Sr. Cobranza
TTITLE6=Vuelos
TTITLE7=Gente de mierdas
TTITLE8=Sincerebro
TTITLE9=A mar_a de Deux
TTITLE10=C. S. M.
TTITLE11=Qu_ pas_?
EXTD=
EXTT0=
EXTT1=
EXTT2=
EXTT3=
EXTT4=
EXTT5=
EXTT6=
EXTT7=
EXTT8=
EXTT9=
EXTT10=
EXTT11=
PLAYORDER=
